<mxfile host="app.diagrams.net" modified="2022-08-08T03:39:43.186Z" agent="5.0 (Windows NT 10.0; Win64; x64) AppleWebKit/537.36 (KHTML, like Gecko) Chrome/104.0.0.0 Safari/537.36" etag="C-UxgAh6FEwLviTt-7MH" version="20.2.3" type="github">
  <diagram id="yPxyJZ8AM_hMuL3Unpa9" name="complex gitflow">
    <mxGraphModel dx="1303" dy="750" grid="1" gridSize="10" guides="0" tooltips="1" connect="0" arrows="0" fold="1" page="0" pageScale="1" pageWidth="1100" pageHeight="850" math="0" shadow="0">
      <root>
        <mxCell id="0" />
        <mxCell id="1" parent="0" />
        <mxCell id="5-vusKYfpJIrkrFz_v---182" value="" style="shape=image;html=1;verticalAlign=top;verticalLabelPosition=bottom;labelBackgroundColor=#ffffff;imageAspect=0;aspect=fixed;image=https://cdn4.iconfinder.com/data/icons/socialcones/508/Gitlab-128.png;rounded=0;shadow=0;glass=0;labelBorderColor=none;fontSize=25;fontColor=#3333FF;strokeColor=#FF0000;strokeWidth=6;fillColor=none;" parent="1" vertex="1">
          <mxGeometry x="21" y="7" width="107" height="107" as="geometry" />
        </mxCell>
        <mxCell id="5-vusKYfpJIrkrFz_v---49" value="" style="whiteSpace=wrap;html=1;strokeWidth=3;fillColor=#FFE6CC;rounded=0;shadow=1;glass=0;absoluteArcSize=1;allowArrows=1;labelBackgroundColor=none;labelBorderColor=none;fontColor=#CFCFCF;strokeColor=#B3B3B3;" parent="1" vertex="1">
          <mxGeometry x="377" y="39" width="413" height="777" as="geometry" />
        </mxCell>
        <mxCell id="5-vusKYfpJIrkrFz_v---159" value="&lt;font style=&quot;font-size: 20px;&quot;&gt;Container&lt;/font&gt;" style="points=[[0,0],[0.25,0],[0.5,0],[0.75,0],[1,0],[1,0.25],[1,0.5],[1,0.75],[1,1],[0.75,1],[0.5,1],[0.25,1],[0,1],[0,0.75],[0,0.5],[0,0.25]];outlineConnect=0;gradientColor=none;html=1;whiteSpace=wrap;fontSize=12;fontStyle=0;container=1;pointerEvents=0;collapsible=0;recursiveResize=0;shape=mxgraph.aws4.group;grIcon=mxgraph.aws4.group_elastic_beanstalk;strokeColor=#D86613;fillColor=default;verticalAlign=top;align=left;spacingLeft=30;fontColor=#D86613;dashed=0;rounded=0;shadow=0;glass=0;labelBackgroundColor=none;labelBorderColor=none;" parent="1" vertex="1">
          <mxGeometry x="477" y="206" width="230" height="138" as="geometry" />
        </mxCell>
        <mxCell id="YNiDKU0idmeV1tOSZLgt-16" value="" style="shape=image;html=1;verticalAlign=top;verticalLabelPosition=bottom;labelBackgroundColor=#ffffff;imageAspect=0;aspect=fixed;image=https://cdn3.iconfinder.com/data/icons/flat-actions-icons-9/792/Tick_Mark_Circle-128.png;rounded=0;shadow=0;glass=0;labelBorderColor=none;fontColor=none;strokeColor=#828282;strokeWidth=4;fillColor=#FFFFFF;" parent="5-vusKYfpJIrkrFz_v---159" vertex="1">
          <mxGeometry x="111.55999999999995" y="41.56" width="61.62" height="61.62" as="geometry" />
        </mxCell>
        <mxCell id="5-vusKYfpJIrkrFz_v---47" value="" style="shape=image;html=1;verticalAlign=top;verticalLabelPosition=bottom;labelBackgroundColor=#ffffff;imageAspect=0;aspect=fixed;image=https://cdn0.iconfinder.com/data/icons/phosphor-thin-vol-3/256/git-commit-thin-128.png;strokeWidth=6;direction=west;rounded=0;" parent="1" vertex="1">
          <mxGeometry x="364" y="517.62" width="126.75" height="126.75" as="geometry" />
        </mxCell>
        <mxCell id="5-vusKYfpJIrkrFz_v---157" value="&lt;font style=&quot;font-size: 20px;&quot;&gt;Container&lt;/font&gt;" style="points=[[0,0],[0.25,0],[0.5,0],[0.75,0],[1,0],[1,0.25],[1,0.5],[1,0.75],[1,1],[0.75,1],[0.5,1],[0.25,1],[0,1],[0,0.75],[0,0.5],[0,0.25]];outlineConnect=0;gradientColor=none;html=1;whiteSpace=wrap;fontSize=12;fontStyle=0;container=1;pointerEvents=0;collapsible=0;recursiveResize=0;shape=mxgraph.aws4.group;grIcon=mxgraph.aws4.group_elastic_beanstalk;strokeColor=#D86613;fillColor=default;verticalAlign=top;align=left;spacingLeft=30;fontColor=#D86613;dashed=0;rounded=0;shadow=0;glass=0;labelBackgroundColor=none;labelBorderColor=none;" parent="1" vertex="1">
          <mxGeometry x="467" y="416" width="260" height="80" as="geometry" />
        </mxCell>
        <mxCell id="5-vusKYfpJIrkrFz_v---151" value="&lt;font style=&quot;font-size: 20px;&quot;&gt;Container&lt;/font&gt;" style="points=[[0,0],[0.25,0],[0.5,0],[0.75,0],[1,0],[1,0.25],[1,0.5],[1,0.75],[1,1],[0.75,1],[0.5,1],[0.25,1],[0,1],[0,0.75],[0,0.5],[0,0.25]];outlineConnect=0;gradientColor=none;html=1;whiteSpace=wrap;fontSize=12;fontStyle=0;container=1;pointerEvents=0;collapsible=0;recursiveResize=0;shape=mxgraph.aws4.group;grIcon=mxgraph.aws4.group_elastic_beanstalk;strokeColor=#D86613;fillColor=default;verticalAlign=top;align=left;spacingLeft=30;fontColor=#D86613;dashed=0;rounded=0;shadow=0;glass=0;labelBackgroundColor=none;labelBorderColor=none;strokeWidth=3;" parent="1" vertex="1">
          <mxGeometry x="398.62" y="616" width="256.38000000000005" height="180" as="geometry" />
        </mxCell>
        <mxCell id="5-vusKYfpJIrkrFz_v---160" value="&lt;font style=&quot;font-size: 16px;&quot;&gt;nodejs&lt;/font&gt;" style="text;html=1;strokeColor=none;fillColor=none;align=left;verticalAlign=middle;whiteSpace=wrap;overflow=hidden;fontSize=20;fontStyle=1;fontFamily=Courier New;rounded=0;" parent="5-vusKYfpJIrkrFz_v---151" vertex="1">
          <mxGeometry x="186.84000000000003" y="-5" width="84.54" height="23" as="geometry" />
        </mxCell>
        <mxCell id="5-vusKYfpJIrkrFz_v---142" value="clone code" style="text;html=1;strokeColor=none;fillColor=none;align=left;verticalAlign=middle;whiteSpace=wrap;overflow=hidden;fontSize=20;fontStyle=1;fontFamily=Courier New;rounded=0;" parent="5-vusKYfpJIrkrFz_v---151" vertex="1">
          <mxGeometry x="59.38" y="59" width="123.81" height="26" as="geometry" />
        </mxCell>
        <mxCell id="5-vusKYfpJIrkrFz_v---116" value="" style="verticalLabelPosition=bottom;verticalAlign=top;html=1;strokeWidth=2;shape=mxgraph.arrows2.arrow;dy=0.6;dx=40;notch=0;rounded=0;shadow=0;glass=0;labelBackgroundColor=none;labelBorderColor=none;fontColor=none;fillColor=#33FF33;dashed=1;dashPattern=1 1;whiteSpace=wrap;" parent="1" vertex="1">
          <mxGeometry x="499" y="696" width="447" height="80" as="geometry" />
        </mxCell>
        <mxCell id="5-vusKYfpJIrkrFz_v---67" value="" style="whiteSpace=wrap;html=1;aspect=fixed;rounded=0;shadow=1;glass=0;labelBackgroundColor=none;labelBorderColor=none;fontColor=none;strokeColor=none;strokeWidth=4;fillColor=#FFFFFF;noLabel=1;" parent="1" vertex="1">
          <mxGeometry x="546" y="6" width="80" height="80" as="geometry" />
        </mxCell>
        <mxCell id="uWUnNED6HEl2aK5fdaIb-10" value="" style="verticalLabelPosition=bottom;verticalAlign=top;html=1;strokeWidth=4;shape=mxgraph.flowchart.on-page_reference;plain-blue;gradientColor=none;fillColor=#B5E3Fe;strokeColor=#000000;rounded=0;" parent="1" vertex="1">
          <mxGeometry x="149" y="496" width="30" height="30" as="geometry" />
        </mxCell>
        <mxCell id="5-vusKYfpJIrkrFz_v---6" value="" style="verticalLabelPosition=bottom;verticalAlign=top;html=1;strokeWidth=4;shape=mxgraph.flowchart.on-page_reference;plain-purple;gradientColor=none;strokeColor=#000000;fillColor=#D5E8D4;rounded=0;" parent="1" vertex="1">
          <mxGeometry x="237.75" y="566" width="30" height="30" as="geometry" />
        </mxCell>
        <mxCell id="5-vusKYfpJIrkrFz_v---7" value="" style="verticalLabelPosition=bottom;verticalAlign=top;html=1;strokeWidth=4;shape=mxgraph.flowchart.on-page_reference;plain-purple;gradientColor=none;strokeColor=#000000;fillColor=#D5E8D4;rounded=0;" parent="1" vertex="1">
          <mxGeometry x="239" y="374" width="30" height="30" as="geometry" />
        </mxCell>
        <mxCell id="5-vusKYfpJIrkrFz_v---11" style="edgeStyle=orthogonalEdgeStyle;html=1;endArrow=none;endFill=0;jettySize=auto;orthogonalLoop=1;strokeWidth=4;fontSize=15;exitX=0.5;exitY=1;exitDx=0;exitDy=0;exitPerimeter=0;curved=1;" parent="1" source="uWUnNED6HEl2aK5fdaIb-10" edge="1">
          <mxGeometry relative="1" as="geometry">
            <mxPoint x="129.6500000000001" y="552.6500000000001" as="sourcePoint" />
            <mxPoint x="236" y="576" as="targetPoint" />
            <Array as="points">
              <mxPoint x="164" y="576" />
            </Array>
          </mxGeometry>
        </mxCell>
        <mxCell id="5-vusKYfpJIrkrFz_v---14" value="App_Cus" style="text;html=1;strokeColor=none;fillColor=none;align=left;verticalAlign=middle;whiteSpace=wrap;overflow=hidden;fontSize=20;fontStyle=1;fontFamily=Courier New;rounded=0;" parent="1" vertex="1">
          <mxGeometry x="247" y="410" width="97.62" height="53" as="geometry" />
        </mxCell>
        <mxCell id="5-vusKYfpJIrkrFz_v---15" value="" style="verticalLabelPosition=bottom;verticalAlign=top;html=1;strokeWidth=4;shape=mxgraph.flowchart.on-page_reference;plain-purple;gradientColor=none;strokeColor=#000000;fillColor=#D5E8D4;rounded=0;" parent="1" vertex="1">
          <mxGeometry x="234.75" y="164" width="30" height="30" as="geometry" />
        </mxCell>
        <mxCell id="5-vusKYfpJIrkrFz_v---16" style="edgeStyle=orthogonalEdgeStyle;orthogonalLoop=1;jettySize=auto;html=1;exitX=0.5;exitY=0;exitDx=0;exitDy=0;exitPerimeter=0;endArrow=none;endFill=0;strokeWidth=4;fontFamily=Courier New;fontColor=#009900;entryX=0;entryY=0.5;entryDx=0;entryDy=0;entryPerimeter=0;curved=1;" parent="1" source="uWUnNED6HEl2aK5fdaIb-10" target="5-vusKYfpJIrkrFz_v---15" edge="1">
          <mxGeometry relative="1" as="geometry">
            <mxPoint x="129" y="447" as="sourcePoint" />
            <mxPoint x="240" y="183" as="targetPoint" />
            <Array as="points">
              <mxPoint x="194" y="496" />
              <mxPoint x="194" y="179" />
            </Array>
          </mxGeometry>
        </mxCell>
        <mxCell id="5-vusKYfpJIrkrFz_v---17" value="Web_Cus" style="text;html=1;strokeColor=none;fillColor=none;align=left;verticalAlign=middle;whiteSpace=wrap;overflow=hidden;fontSize=20;fontStyle=1;fontFamily=Courier New;rounded=0;" parent="1" vertex="1">
          <mxGeometry x="229.38" y="200.37" width="97.62" height="33" as="geometry" />
        </mxCell>
        <mxCell id="5-vusKYfpJIrkrFz_v---44" value="" style="shape=image;html=1;verticalAlign=top;verticalLabelPosition=bottom;labelBackgroundColor=#ffffff;imageAspect=0;aspect=fixed;image=https://cdn0.iconfinder.com/data/icons/phosphor-thin-vol-3/256/git-commit-thin-128.png;strokeWidth=6;rounded=0;" parent="1" vertex="1">
          <mxGeometry x="555" y="114.62" width="126.75" height="126.75" as="geometry" />
        </mxCell>
        <mxCell id="5-vusKYfpJIrkrFz_v---46" value="" style="shape=image;html=1;verticalAlign=top;verticalLabelPosition=bottom;labelBackgroundColor=#ffffff;imageAspect=0;aspect=fixed;image=https://cdn0.iconfinder.com/data/icons/phosphor-thin-vol-3/256/git-commit-thin-128.png;strokeWidth=6;rounded=0;" parent="1" vertex="1">
          <mxGeometry x="434.82" y="323.62" width="126.75" height="126.75" as="geometry" />
        </mxCell>
        <mxCell id="5-vusKYfpJIrkrFz_v---53" value="" style="shape=image;html=1;verticalAlign=top;verticalLabelPosition=bottom;labelBackgroundColor=#ffffff;imageAspect=0;aspect=fixed;image=https://cdn3.iconfinder.com/data/icons/UltimateGnome/128x128/actions/gtk-refresh.png;rounded=0;shadow=1;glass=0;labelBorderColor=none;fontColor=#CFCFCF;strokeColor=#B3B3B3;strokeWidth=4;fillColor=none;imageBorder=none;imageBackground=none;" parent="1" vertex="1">
          <mxGeometry x="600.37" y="157.5" width="38" height="38" as="geometry" />
        </mxCell>
        <mxCell id="5-vusKYfpJIrkrFz_v---57" value="" style="shape=image;html=1;verticalAlign=top;verticalLabelPosition=bottom;labelBackgroundColor=#007FFF;imageAspect=0;aspect=fixed;image=https://cdn3.iconfinder.com/data/icons/UltimateGnome/128x128/actions/gtk-refresh.png;rounded=0;shadow=1;glass=0;labelBorderColor=#007FFF;fontColor=#007FFF;strokeColor=#007FFF;strokeWidth=4;fillColor=#007FFF;" parent="1" vertex="1">
          <mxGeometry x="407.38" y="561" width="40" height="40" as="geometry" />
        </mxCell>
        <mxCell id="5-vusKYfpJIrkrFz_v---66" value="" style="aspect=fixed;html=1;points=[];align=center;image;fontSize=12;image=img/lib/mscae/VM_Linux_Non_Azure.svg;rounded=0;shadow=1;glass=0;labelBackgroundColor=default;labelBorderColor=none;fontColor=default;strokeColor=#B3B3B3;strokeWidth=4;fillColor=#007FFF;" parent="1" vertex="1">
          <mxGeometry x="553.39" y="18" width="65.22" height="60" as="geometry" />
        </mxCell>
        <mxCell id="5-vusKYfpJIrkrFz_v---71" value="&lt;font style=&quot;font-size: 20px;&quot;&gt;Gitlab Runner(Linux VM)&lt;/font&gt;" style="text;html=1;strokeColor=none;fillColor=none;align=center;verticalAlign=middle;whiteSpace=wrap;overflow=hidden;fontSize=14;fontStyle=1;fontFamily=Courier New;rounded=0;" parent="1" vertex="1">
          <mxGeometry x="484" y="83" width="214" height="55" as="geometry" />
        </mxCell>
        <mxCell id="5-vusKYfpJIrkrFz_v---81" value="" style="edgeStyle=orthogonalEdgeStyle;rounded=0;orthogonalLoop=1;jettySize=auto;html=1;fontSize=15;endArrow=none;endFill=0;strokeWidth=4;" parent="1" edge="1">
          <mxGeometry relative="1" as="geometry">
            <mxPoint x="315" y="388" as="targetPoint" />
            <mxPoint x="269" y="387.2900000000004" as="sourcePoint" />
            <Array as="points">
              <mxPoint x="327" y="387" />
            </Array>
          </mxGeometry>
        </mxCell>
        <mxCell id="5-vusKYfpJIrkrFz_v---101" value="" style="line;strokeWidth=4;html=1;perimeter=backbonePerimeter;points=[];outlineConnect=0;rounded=0;shadow=0;glass=0;labelBackgroundColor=none;labelBorderColor=none;fontColor=none;fillColor=#FFFFFF;" parent="1" vertex="1">
          <mxGeometry x="270" y="576" width="40" height="10" as="geometry" />
        </mxCell>
        <mxCell id="5-vusKYfpJIrkrFz_v---103" value="" style="shape=image;html=1;verticalAlign=top;verticalLabelPosition=bottom;labelBackgroundColor=#ffffff;imageAspect=0;aspect=fixed;image=https://cdn3.iconfinder.com/data/icons/flat-actions-icons-9/792/Tick_Mark_Circle-128.png;rounded=0;shadow=0;glass=0;labelBorderColor=none;fontColor=none;strokeColor=#828282;strokeWidth=4;fillColor=#FFFFFF;" parent="1" vertex="1">
          <mxGeometry x="395.56999999999994" y="637" width="61.62" height="61.62" as="geometry" />
        </mxCell>
        <mxCell id="5-vusKYfpJIrkrFz_v---104" value="" style="shape=image;html=1;verticalAlign=top;verticalLabelPosition=bottom;labelBackgroundColor=#ffffff;imageAspect=0;aspect=fixed;image=https://cdn3.iconfinder.com/data/icons/flat-actions-icons-9/792/Tick_Mark_Circle-128.png;rounded=0;shadow=0;glass=0;labelBorderColor=none;fontColor=none;strokeColor=#828282;strokeWidth=4;fillColor=#FFFFFF;" parent="1" vertex="1">
          <mxGeometry x="396.87" y="705" width="59" height="59" as="geometry" />
        </mxCell>
        <mxCell id="5-vusKYfpJIrkrFz_v---106" style="edgeStyle=orthogonalEdgeStyle;orthogonalLoop=1;jettySize=auto;html=1;endArrow=none;endFill=0;strokeWidth=4;fontFamily=Courier New;fontColor=#009900;sketch=1;curved=1;" parent="1" edge="1">
          <mxGeometry relative="1" as="geometry">
            <mxPoint x="171" y="496" as="sourcePoint" />
            <mxPoint x="240" y="390" as="targetPoint" />
            <Array as="points">
              <mxPoint x="210" y="496" />
              <mxPoint x="210" y="390" />
              <mxPoint x="242" y="390" />
            </Array>
          </mxGeometry>
        </mxCell>
        <mxCell id="5-vusKYfpJIrkrFz_v---108" value="" style="line;strokeWidth=2;direction=south;html=1;rounded=0;shadow=0;glass=0;labelBackgroundColor=none;labelBorderColor=none;fontColor=none;fillColor=#FFFFFF;strokeColor=#858585;" parent="1" vertex="1">
          <mxGeometry x="421.37" y="606" width="10" height="38" as="geometry" />
        </mxCell>
        <mxCell id="5-vusKYfpJIrkrFz_v---109" value="" style="line;strokeWidth=2;direction=south;html=1;rounded=0;shadow=0;glass=0;labelBackgroundColor=none;labelBorderColor=none;fontColor=none;fillColor=#FFFFFF;strokeColor=#858585;" parent="1" vertex="1">
          <mxGeometry x="421.38" y="683" width="10" height="30" as="geometry" />
        </mxCell>
        <mxCell id="5-vusKYfpJIrkrFz_v---117" value="transfer source &amp;amp; build&amp;nbsp;" style="whiteSpace=wrap;html=1;rounded=0;shadow=0;glass=0;dashed=1;dashPattern=1 1;labelBackgroundColor=none;labelBorderColor=none;fontColor=none;strokeColor=none;strokeWidth=4;fillColor=#FFFFFF;fontSize=14;" parent="1" vertex="1">
          <mxGeometry x="539" y="725.75" width="231" height="23.25" as="geometry" />
        </mxCell>
        <mxCell id="5-vusKYfpJIrkrFz_v---120" value="" style="aspect=fixed;perimeter=ellipsePerimeter;html=1;align=center;shadow=0;dashed=0;spacingTop=3;image;image=img/lib/active_directory/web_server.svg;rounded=0;glass=0;dashPattern=1 1;labelBackgroundColor=none;labelBorderColor=none;fontSize=14;fontColor=none;strokeColor=#858585;strokeWidth=4;fillColor=#FFFFFF;" parent="1" vertex="1">
          <mxGeometry x="976" y="662.56" width="90.75" height="113.44" as="geometry" />
        </mxCell>
        <mxCell id="5-vusKYfpJIrkrFz_v---121" value="&lt;font style=&quot;font-size: 20px;&quot;&gt;BE server&lt;/font&gt;" style="text;html=1;strokeColor=none;fillColor=none;align=left;verticalAlign=middle;whiteSpace=wrap;overflow=hidden;fontSize=14;fontStyle=1;fontFamily=Courier New;rounded=0;" parent="1" vertex="1">
          <mxGeometry x="968" y="769" width="128" height="39" as="geometry" />
        </mxCell>
        <mxCell id="5-vusKYfpJIrkrFz_v---122" value="" style="shape=image;html=1;verticalAlign=top;verticalLabelPosition=bottom;labelBackgroundColor=#ffffff;imageAspect=0;aspect=fixed;image=https://cdn3.iconfinder.com/data/icons/UltimateGnome/128x128/actions/gtk-refresh.png;rounded=0;shadow=1;glass=0;labelBorderColor=none;fontColor=#CFCFCF;strokeColor=#B3B3B3;strokeWidth=4;fillColor=none;imageBorder=none;imageBackground=none;" parent="1" vertex="1">
          <mxGeometry x="479.20000000000005" y="368" width="38" height="38" as="geometry" />
        </mxCell>
        <mxCell id="5-vusKYfpJIrkrFz_v---125" value="" style="shape=image;html=1;verticalAlign=top;verticalLabelPosition=bottom;labelBackgroundColor=#ffffff;imageAspect=0;aspect=fixed;image=https://cdn3.iconfinder.com/data/icons/flat-actions-icons-9/792/Tick_Mark_Circle-128.png;rounded=0;shadow=0;glass=0;labelBorderColor=none;fontColor=none;strokeColor=#828282;strokeWidth=4;fillColor=#FFFFFF;" parent="1" vertex="1">
          <mxGeometry x="588.56" y="203.76" width="61.62" height="61.62" as="geometry" />
        </mxCell>
        <mxCell id="5-vusKYfpJIrkrFz_v---126" value="" style="shape=image;html=1;verticalAlign=top;verticalLabelPosition=bottom;labelBackgroundColor=#ffffff;imageAspect=0;aspect=fixed;image=https://cdn3.iconfinder.com/data/icons/flat-actions-icons-9/792/Tick_Mark_Circle-128.png;rounded=0;shadow=0;glass=0;labelBorderColor=none;fontColor=none;strokeColor=#828282;strokeWidth=4;fillColor=#FFFFFF;" parent="1" vertex="1">
          <mxGeometry x="588.56" y="291.38" width="61.62" height="61.62" as="geometry" />
        </mxCell>
        <mxCell id="5-vusKYfpJIrkrFz_v---128" value="&lt;font style=&quot;font-size: 20px;&quot;&gt;FE server&lt;/font&gt;" style="text;html=1;strokeColor=none;fillColor=none;align=left;verticalAlign=middle;whiteSpace=wrap;overflow=hidden;fontSize=20;fontStyle=1;fontFamily=Courier New;rounded=0;" parent="1" vertex="1">
          <mxGeometry x="980" y="352" width="113" height="39" as="geometry" />
        </mxCell>
        <mxCell id="5-vusKYfpJIrkrFz_v---127" value="" style="aspect=fixed;perimeter=ellipsePerimeter;html=1;align=center;shadow=0;dashed=0;spacingTop=3;image;image=img/lib/active_directory/web_server.svg;rounded=0;glass=0;dashPattern=1 1;labelBackgroundColor=none;labelBorderColor=none;fontSize=14;fontColor=none;strokeColor=#858585;strokeWidth=4;fillColor=#FFFFFF;" parent="1" vertex="1">
          <mxGeometry x="991" y="245.55999999999995" width="90.75" height="113.44" as="geometry" />
        </mxCell>
        <mxCell id="5-vusKYfpJIrkrFz_v---139" value="" style="verticalLabelPosition=bottom;verticalAlign=top;html=1;strokeWidth=2;shape=mxgraph.arrows2.arrow;dy=0.6;dx=40;notch=0;rounded=0;shadow=0;glass=0;labelBackgroundColor=none;labelBorderColor=none;fontColor=none;fillColor=#33FF33;dashed=1;dashPattern=1 1;whiteSpace=wrap;" parent="1" vertex="1">
          <mxGeometry x="657" y="284.19" width="321" height="80.81" as="geometry" />
        </mxCell>
        <mxCell id="5-vusKYfpJIrkrFz_v---140" value="transfer" style="whiteSpace=wrap;html=1;rounded=0;shadow=0;glass=0;dashed=1;dashPattern=1 1;labelBackgroundColor=none;labelBorderColor=none;fontColor=none;strokeColor=none;strokeWidth=4;fillColor=#FFFFFF;fontSize=14;" parent="1" vertex="1">
          <mxGeometry x="706" y="311.97" width="156" height="23.25" as="geometry" />
        </mxCell>
        <mxCell id="5-vusKYfpJIrkrFz_v---141" value="Backend_Cus" style="text;html=1;strokeColor=none;fillColor=none;align=left;verticalAlign=middle;whiteSpace=wrap;overflow=hidden;fontSize=20;fontStyle=1;fontFamily=Courier New;rounded=0;" parent="1" vertex="1">
          <mxGeometry x="142.19" y="596" width="144.81" height="40" as="geometry" />
        </mxCell>
        <mxCell id="5-vusKYfpJIrkrFz_v---144" value="build&amp;nbsp;" style="text;html=1;strokeColor=none;fillColor=none;align=left;verticalAlign=middle;whiteSpace=wrap;overflow=hidden;fontSize=20;fontStyle=1;fontFamily=Courier New;rounded=0;" parent="1" vertex="1">
          <mxGeometry x="500.55999999999995" y="253.19" width="91" height="53" as="geometry" />
        </mxCell>
        <mxCell id="5-vusKYfpJIrkrFz_v---145" value="deploy" style="text;html=1;strokeColor=none;fillColor=none;align=left;verticalAlign=middle;whiteSpace=wrap;overflow=hidden;fontSize=20;fontStyle=1;fontFamily=Courier New;rounded=0;" parent="1" vertex="1">
          <mxGeometry x="494.55999999999995" y="299.69" width="91" height="53" as="geometry" />
        </mxCell>
        <mxCell id="5-vusKYfpJIrkrFz_v---147" value="" style="line;strokeWidth=2;html=1;perimeter=backbonePerimeter;points=[];outlineConnect=0;rounded=0;shadow=0;glass=0;labelBackgroundColor=none;labelBorderColor=none;fontSize=20;fontColor=none;fillColor=#33FF33;strokeColor=#878787;" parent="1" vertex="1">
          <mxGeometry x="568" y="324" width="30" height="3.37" as="geometry" />
        </mxCell>
        <mxCell id="5-vusKYfpJIrkrFz_v---148" value="" style="line;strokeWidth=2;html=1;perimeter=backbonePerimeter;points=[];outlineConnect=0;rounded=0;shadow=0;glass=0;labelBackgroundColor=none;labelBorderColor=none;fontSize=20;fontColor=none;fillColor=#33FF33;strokeColor=#878787;" parent="1" vertex="1">
          <mxGeometry x="568" y="278" width="30" height="3.37" as="geometry" />
        </mxCell>
        <mxCell id="5-vusKYfpJIrkrFz_v---152" value="deploy" style="text;html=1;strokeColor=none;fillColor=none;align=left;verticalAlign=middle;whiteSpace=wrap;overflow=hidden;fontSize=20;fontStyle=1;fontFamily=Courier New;rounded=0;" parent="1" vertex="1">
          <mxGeometry x="403.81" y="750" width="128.81" height="53" as="geometry" />
        </mxCell>
        <mxCell id="5-vusKYfpJIrkrFz_v---162" value="&lt;font style=&quot;font-size: 16px;&quot;&gt;nodejs&lt;/font&gt;" style="text;html=1;strokeColor=none;fillColor=none;align=left;verticalAlign=middle;whiteSpace=wrap;overflow=hidden;fontSize=20;fontStyle=1;fontFamily=Courier New;rounded=0;" parent="1" vertex="1">
          <mxGeometry x="645.46" y="200" width="84.54" height="23" as="geometry" />
        </mxCell>
        <mxCell id="5-vusKYfpJIrkrFz_v---163" value="" style="line;strokeWidth=4;html=1;perimeter=backbonePerimeter;points=[];outlineConnect=0;rounded=0;shadow=0;glass=0;labelBackgroundColor=none;labelBorderColor=none;fontSize=16;fontColor=none;fillColor=#007FFF;" parent="1" vertex="1">
          <mxGeometry x="179" y="507.62" width="171" height="10" as="geometry" />
        </mxCell>
        <mxCell id="5-vusKYfpJIrkrFz_v---164" value="" style="line;strokeWidth=4;html=1;perimeter=backbonePerimeter;points=[];outlineConnect=0;rounded=0;shadow=0;glass=0;labelBackgroundColor=none;labelBorderColor=none;fontSize=16;fontColor=none;fillColor=#007FFF;" parent="1" vertex="1">
          <mxGeometry x="361" y="382" width="93" height="10" as="geometry" />
        </mxCell>
        <mxCell id="5-vusKYfpJIrkrFz_v---165" value="" style="line;strokeWidth=4;html=1;perimeter=backbonePerimeter;points=[];outlineConnect=0;rounded=0;shadow=0;glass=0;labelBackgroundColor=none;labelBorderColor=none;fontSize=16;fontColor=none;fillColor=#007FFF;" parent="1" vertex="1">
          <mxGeometry x="359" y="172.99" width="215" height="10" as="geometry" />
        </mxCell>
        <mxCell id="5-vusKYfpJIrkrFz_v---166" value="" style="line;strokeWidth=4;html=1;perimeter=backbonePerimeter;points=[];outlineConnect=0;rounded=0;shadow=0;glass=0;labelBackgroundColor=none;labelBorderColor=none;fontSize=16;fontColor=none;fillColor=#007FFF;" parent="1" vertex="1">
          <mxGeometry x="351.37" y="576" width="32.63" height="10" as="geometry" />
        </mxCell>
        <mxCell id="5-vusKYfpJIrkrFz_v---167" value="" style="line;strokeWidth=4;html=1;perimeter=backbonePerimeter;points=[];outlineConnect=0;rounded=0;shadow=0;glass=0;labelBackgroundColor=none;labelBorderColor=none;fontSize=16;fontColor=none;fillColor=#007FFF;" parent="1" vertex="1">
          <mxGeometry x="485.46000000000004" y="575.99" width="354.54" height="10" as="geometry" />
        </mxCell>
        <mxCell id="5-vusKYfpJIrkrFz_v---169" value="" style="line;strokeWidth=4;html=1;perimeter=backbonePerimeter;points=[];outlineConnect=0;rounded=0;shadow=0;glass=0;labelBackgroundColor=none;labelBorderColor=none;fontSize=16;fontColor=none;fillColor=#007FFF;" parent="1" vertex="1">
          <mxGeometry x="559.46" y="381.99" width="297.54" height="10" as="geometry" />
        </mxCell>
        <mxCell id="5-vusKYfpJIrkrFz_v---173" style="edgeStyle=orthogonalEdgeStyle;rounded=0;orthogonalLoop=1;jettySize=auto;html=1;fontSize=20;fontColor=#000000;strokeColor=#3333FF;strokeWidth=4;dashed=1;" parent="1" source="5-vusKYfpJIrkrFz_v---172" edge="1">
          <mxGeometry relative="1" as="geometry">
            <mxPoint x="130.47000000000025" y="506" as="targetPoint" />
          </mxGeometry>
        </mxCell>
        <mxCell id="5-vusKYfpJIrkrFz_v---172" value="&lt;font color=&quot;#000000&quot; style=&quot;font-size: 20px;&quot;&gt;Register&lt;/font&gt;" style="shape=ext;double=1;rounded=0;whiteSpace=wrap;html=1;shadow=0;glass=0;labelBackgroundColor=none;labelBorderColor=none;fontSize=20;fontColor=#ffffff;strokeColor=#001DBC;strokeWidth=3;fillColor=none;direction=south;verticalAlign=middle;horizontal=0;align=center;" parent="1" vertex="1">
          <mxGeometry x="109.94" y="181.75" width="41.06" height="120" as="geometry" />
        </mxCell>
        <mxCell id="5-vusKYfpJIrkrFz_v---170" value="" style="line;strokeWidth=4;html=1;perimeter=backbonePerimeter;points=[];outlineConnect=0;rounded=0;shadow=0;glass=0;labelBackgroundColor=none;labelBorderColor=none;fontSize=16;fontColor=none;fillColor=#007FFF;" parent="1" vertex="1">
          <mxGeometry x="666.21" y="172.5" width="78.79" height="10" as="geometry" />
        </mxCell>
        <mxCell id="5-vusKYfpJIrkrFz_v---175" value="" style="edgeStyle=elbowEdgeStyle;elbow=horizontal;endArrow=classic;html=1;rounded=0;dashed=1;fontSize=20;fontColor=#000000;strokeColor=#3333FF;strokeWidth=4;entryX=0;entryY=0.5;entryDx=0;entryDy=0;exitX=-0.005;exitY=0.121;exitDx=0;exitDy=0;exitPerimeter=0;" parent="1" source="5-vusKYfpJIrkrFz_v---49" target="5-vusKYfpJIrkrFz_v---172" edge="1">
          <mxGeometry width="50" height="50" relative="1" as="geometry">
            <mxPoint x="411" y="116" as="sourcePoint" />
            <mxPoint x="211" y="86" as="targetPoint" />
            <Array as="points">
              <mxPoint x="130" y="106" />
            </Array>
          </mxGeometry>
        </mxCell>
        <mxCell id="5-vusKYfpJIrkrFz_v---176" value="" style="shape=actor;whiteSpace=wrap;html=1;rounded=0;shadow=0;glass=0;labelBackgroundColor=none;labelBorderColor=none;fontSize=20;fontColor=#000000;strokeColor=#FF0000;strokeWidth=6;fillColor=none;" parent="1" vertex="1">
          <mxGeometry x="109" y="736" width="40" height="60" as="geometry" />
        </mxCell>
        <mxCell id="5-vusKYfpJIrkrFz_v---177" value="" style="endArrow=classic;html=1;rounded=0;fontSize=20;fontColor=#000000;strokeColor=#FF0000;strokeWidth=4;entryX=0.25;entryY=1;entryDx=0;entryDy=0;exitX=0.9;exitY=0.5;exitDx=0;exitDy=0;exitPerimeter=0;" parent="1" edge="1">
          <mxGeometry relative="1" as="geometry">
            <mxPoint x="149" y="763" as="sourcePoint" />
            <mxPoint x="313.61999999999966" y="598.5000000000002" as="targetPoint" />
          </mxGeometry>
        </mxCell>
        <mxCell id="5-vusKYfpJIrkrFz_v---178" value="Manual start" style="edgeLabel;resizable=0;html=1;align=center;verticalAlign=middle;rounded=0;shadow=0;glass=0;labelBackgroundColor=none;labelBorderColor=none;fontSize=20;fontColor=#FF0000;strokeColor=#FF0000;strokeWidth=6;fillColor=none;fontStyle=1;" parent="5-vusKYfpJIrkrFz_v---177" connectable="0" vertex="1">
          <mxGeometry relative="1" as="geometry">
            <mxPoint x="-91" y="19" as="offset" />
          </mxGeometry>
        </mxCell>
        <mxCell id="5-vusKYfpJIrkrFz_v---181" value="&lt;font color=&quot;#3333ff&quot; style=&quot;font-size: 25px;&quot;&gt;GitLab TMA&lt;/font&gt;" style="text;html=1;strokeColor=none;fillColor=none;align=left;verticalAlign=middle;whiteSpace=wrap;overflow=hidden;fontSize=20;fontStyle=1;fontFamily=Courier New;rounded=0;" parent="1" vertex="1">
          <mxGeometry x="7" y="520" width="183.06" height="53" as="geometry" />
        </mxCell>
        <mxCell id="5-vusKYfpJIrkrFz_v---186" value="" style="line;strokeWidth=4;html=1;perimeter=backbonePerimeter;points=[];outlineConnect=0;rounded=0;shadow=0;glass=0;labelBackgroundColor=none;labelBorderColor=none;fontSize=25;fontColor=#3333FF;fillColor=none;" parent="1" vertex="1">
          <mxGeometry x="7" y="508" width="142" height="10" as="geometry" />
        </mxCell>
        <mxCell id="5-vusKYfpJIrkrFz_v---187" value="&lt;font style=&quot;font-size: 25px;&quot;&gt;CI&lt;/font&gt;" style="text;html=1;strokeColor=none;fillColor=none;align=left;verticalAlign=middle;whiteSpace=wrap;overflow=hidden;fontSize=20;fontStyle=1;fontFamily=Garamond;fontColor=#4C0099;rounded=0;" parent="1" vertex="1">
          <mxGeometry x="48" y="77" width="53" height="53" as="geometry" />
        </mxCell>
        <mxCell id="5-vusKYfpJIrkrFz_v---188" value="" style="shape=image;html=1;verticalAlign=top;verticalLabelPosition=bottom;labelBackgroundColor=none;imageAspect=0;aspect=fixed;image=https://cdn0.iconfinder.com/data/icons/ie_Financial_set/128/48.png;rounded=0;shadow=0;glass=0;labelBorderColor=none;fontFamily=Garamond;fontSize=25;fontColor=#7F00FF;strokeColor=#FF0000;strokeWidth=6;fillColor=none;" parent="1" vertex="1">
          <mxGeometry x="76" y="91.24" width="26.76" height="26.76" as="geometry" />
        </mxCell>
        <mxCell id="5-vusKYfpJIrkrFz_v---189" value="pipeline" style="text;html=1;strokeColor=none;fillColor=none;align=left;verticalAlign=middle;whiteSpace=wrap;overflow=hidden;fontSize=20;fontStyle=1;fontFamily=Courier New;rounded=0;" parent="1" vertex="1">
          <mxGeometry x="356.58" y="518" width="97.62" height="53" as="geometry" />
        </mxCell>
        <mxCell id="5-vusKYfpJIrkrFz_v---190" value="pipeline" style="text;html=1;strokeColor=none;fillColor=none;align=left;verticalAlign=middle;whiteSpace=wrap;overflow=hidden;fontSize=20;fontStyle=1;fontFamily=Courier New;rounded=0;" parent="1" vertex="1">
          <mxGeometry x="387.84" y="332" width="97.62" height="53" as="geometry" />
        </mxCell>
        <mxCell id="5-vusKYfpJIrkrFz_v---191" value="pipeline" style="text;html=1;strokeColor=none;fillColor=none;align=left;verticalAlign=middle;whiteSpace=wrap;overflow=hidden;fontSize=20;fontStyle=1;fontFamily=Courier New;rounded=0;" parent="1" vertex="1">
          <mxGeometry x="482.46000000000004" y="128.75" width="97.62" height="53" as="geometry" />
        </mxCell>
        <mxCell id="5-vusKYfpJIrkrFz_v---195" value="" style="html=1;verticalLabelPosition=bottom;labelBackgroundColor=#ffffff;verticalAlign=top;shadow=0;dashed=0;strokeWidth=6;shape=mxgraph.ios7.misc.more;strokeColor=#a0a0a0;rounded=0;glass=0;labelBorderColor=none;fontFamily=Garamond;fontSize=25;fontColor=#4C0099;fillColor=none;fontStyle=1;" parent="1" vertex="1">
          <mxGeometry x="102" y="492" width="14" height="40" as="geometry" />
        </mxCell>
        <mxCell id="5-vusKYfpJIrkrFz_v---197" value="" style="html=1;verticalLabelPosition=bottom;labelBackgroundColor=#ffffff;verticalAlign=top;shadow=0;dashed=0;strokeWidth=6;shape=mxgraph.ios7.misc.more;strokeColor=#a0a0a0;rounded=0;glass=0;labelBorderColor=none;fontFamily=Garamond;fontSize=25;fontColor=#4C0099;fillColor=none;fontStyle=1;" parent="1" vertex="1">
          <mxGeometry x="89" y="494" width="14" height="40" as="geometry" />
        </mxCell>
        <mxCell id="YNiDKU0idmeV1tOSZLgt-1" value="Gitlab-TMA" style="text;html=1;strokeColor=default;fillColor=none;align=left;verticalAlign=middle;whiteSpace=wrap;overflow=hidden;fontSize=20;fontStyle=1;fontFamily=Courier New;rounded=0;strokeWidth=3;" parent="1" vertex="1">
          <mxGeometry x="118" y="56" width="152" height="37" as="geometry" />
        </mxCell>
        <mxCell id="YNiDKU0idmeV1tOSZLgt-4" value="" style="whiteSpace=wrap;html=1;aspect=fixed;rounded=0;" parent="1" vertex="1">
          <mxGeometry x="307.82" y="558" width="41" height="41" as="geometry" />
        </mxCell>
        <mxCell id="YNiDKU0idmeV1tOSZLgt-5" value="" style="whiteSpace=wrap;html=1;aspect=fixed;rounded=0;" parent="1" vertex="1">
          <mxGeometry x="317.82" y="365" width="41" height="41" as="geometry" />
        </mxCell>
        <mxCell id="YNiDKU0idmeV1tOSZLgt-7" value="" style="edgeStyle=orthogonalEdgeStyle;rounded=0;orthogonalLoop=1;jettySize=auto;html=1;fontSize=15;endArrow=none;endFill=0;strokeWidth=4;" parent="1" edge="1">
          <mxGeometry relative="1" as="geometry">
            <mxPoint x="310" y="177" as="targetPoint" />
            <mxPoint x="264" y="176.29000000000042" as="sourcePoint" />
            <Array as="points">
              <mxPoint x="322" y="176" />
            </Array>
          </mxGeometry>
        </mxCell>
        <mxCell id="YNiDKU0idmeV1tOSZLgt-8" value="" style="whiteSpace=wrap;html=1;aspect=fixed;rounded=0;" parent="1" vertex="1">
          <mxGeometry x="318" y="153" width="41" height="41" as="geometry" />
        </mxCell>
        <mxCell id="YNiDKU0idmeV1tOSZLgt-9" value="" style="triangle;whiteSpace=wrap;html=1;fillColor=#33FF33;rounded=0;" parent="1" vertex="1">
          <mxGeometry x="327" y="368" width="26.24" height="32" as="geometry" />
        </mxCell>
        <mxCell id="YNiDKU0idmeV1tOSZLgt-10" value="" style="triangle;whiteSpace=wrap;html=1;fillColor=#33FF33;rounded=0;" parent="1" vertex="1">
          <mxGeometry x="327" y="157.5" width="26.24" height="32" as="geometry" />
        </mxCell>
        <mxCell id="YNiDKU0idmeV1tOSZLgt-11" value="" style="triangle;whiteSpace=wrap;html=1;fillColor=#33FF33;rounded=0;" parent="1" vertex="1">
          <mxGeometry x="315.2" y="562.5" width="26.24" height="32" as="geometry" />
        </mxCell>
        <mxCell id="YNiDKU0idmeV1tOSZLgt-12" value="&lt;font style=&quot;font-size: 20px;&quot;&gt;Repo on Git Customer&lt;br&gt;zeevaa.backlog.com&lt;/font&gt;" style="ellipse;shape=cloud;whiteSpace=wrap;html=1;fillColor=#33FF99;rounded=0;" parent="1" vertex="1">
          <mxGeometry x="801" y="13" width="286" height="163.5" as="geometry" />
        </mxCell>
        <mxCell id="YNiDKU0idmeV1tOSZLgt-17" value="" style="line;strokeWidth=2;direction=south;html=1;rounded=0;shadow=0;glass=0;labelBackgroundColor=none;labelBorderColor=none;fontColor=none;fillColor=#FFFFFF;strokeColor=#858585;" parent="1" vertex="1">
          <mxGeometry x="612.37" y="200" width="10" height="19.5" as="geometry" />
        </mxCell>
        <mxCell id="YNiDKU0idmeV1tOSZLgt-27" value="clone code" style="text;html=1;strokeColor=none;fillColor=none;align=left;verticalAlign=middle;whiteSpace=wrap;overflow=hidden;fontSize=20;fontStyle=1;fontFamily=Courier New;rounded=0;" parent="1" vertex="1">
          <mxGeometry x="636" y="226" width="168.54" height="52" as="geometry" />
        </mxCell>
        <mxCell id="YNiDKU0idmeV1tOSZLgt-28" value="" style="edgeStyle=segmentEdgeStyle;endArrow=classic;html=1;rounded=0;fontSize=20;strokeWidth=4;entryX=0.31;entryY=0.8;entryDx=0;entryDy=0;entryPerimeter=0;dashed=1;strokeColor=#FF0000;dashPattern=1 1;" parent="1" target="YNiDKU0idmeV1tOSZLgt-12" edge="1">
          <mxGeometry width="50" height="50" relative="1" as="geometry">
            <mxPoint x="639" y="236" as="sourcePoint" />
            <mxPoint x="689" y="186" as="targetPoint" />
            <Array as="points">
              <mxPoint x="890" y="236" />
            </Array>
          </mxGeometry>
        </mxCell>
        <mxCell id="YNiDKU0idmeV1tOSZLgt-33" value="&lt;font style=&quot;font-size: 20px;&quot;&gt;Container&lt;/font&gt;" style="points=[[0,0],[0.25,0],[0.5,0],[0.75,0],[1,0],[1,0.25],[1,0.5],[1,0.75],[1,1],[0.75,1],[0.5,1],[0.25,1],[0,1],[0,0.75],[0,0.5],[0,0.25]];outlineConnect=0;gradientColor=none;html=1;whiteSpace=wrap;fontSize=12;fontStyle=0;container=1;pointerEvents=0;collapsible=0;recursiveResize=0;shape=mxgraph.aws4.group;grIcon=mxgraph.aws4.group_elastic_beanstalk;strokeColor=#D86613;fillColor=default;verticalAlign=top;align=left;spacingLeft=30;fontColor=#D86613;dashed=0;" parent="1" vertex="1">
          <mxGeometry x="466" y="416" width="280" height="145" as="geometry" />
        </mxCell>
        <mxCell id="YNiDKU0idmeV1tOSZLgt-37" value="build&amp;nbsp;" style="text;html=1;strokeColor=none;fillColor=none;align=left;verticalAlign=middle;whiteSpace=wrap;overflow=hidden;fontSize=20;fontStyle=1;fontFamily=Courier New;rounded=0;" parent="YNiDKU0idmeV1tOSZLgt-33" vertex="1">
          <mxGeometry x="84" y="84" width="91" height="53" as="geometry" />
        </mxCell>
        <mxCell id="YNiDKU0idmeV1tOSZLgt-38" value="clone code" style="text;html=1;strokeColor=none;fillColor=none;align=left;verticalAlign=middle;whiteSpace=wrap;overflow=hidden;fontSize=20;fontStyle=1;fontFamily=Courier New;rounded=0;" parent="YNiDKU0idmeV1tOSZLgt-33" vertex="1">
          <mxGeometry x="84" y="44" width="168.54" height="52" as="geometry" />
        </mxCell>
        <mxCell id="YNiDKU0idmeV1tOSZLgt-40" value="" style="line;strokeWidth=2;direction=south;html=1;rounded=0;shadow=0;glass=0;labelBackgroundColor=none;labelBorderColor=none;fontColor=none;fillColor=#FFFFFF;strokeColor=#858585;" parent="YNiDKU0idmeV1tOSZLgt-33" vertex="1">
          <mxGeometry x="26" y="-3" width="10" height="36" as="geometry" />
        </mxCell>
        <mxCell id="YNiDKU0idmeV1tOSZLgt-34" value="" style="shape=image;html=1;verticalAlign=top;verticalLabelPosition=bottom;labelBackgroundColor=#ffffff;imageAspect=0;aspect=fixed;image=https://cdn3.iconfinder.com/data/icons/flat-actions-icons-9/792/Tick_Mark_Circle-128.png;rounded=0;shadow=0;glass=0;labelBorderColor=none;fontColor=none;strokeColor=#828282;strokeWidth=4;fillColor=#FFFFFF;" parent="1" vertex="1">
          <mxGeometry x="469.99999999999994" y="440" width="61.62" height="61.62" as="geometry" />
        </mxCell>
        <mxCell id="YNiDKU0idmeV1tOSZLgt-35" value="" style="shape=image;html=1;verticalAlign=top;verticalLabelPosition=bottom;labelBackgroundColor=#ffffff;imageAspect=0;aspect=fixed;image=https://cdn3.iconfinder.com/data/icons/flat-actions-icons-9/792/Tick_Mark_Circle-128.png;rounded=0;shadow=0;glass=0;labelBorderColor=none;fontColor=none;strokeColor=#828282;strokeWidth=4;fillColor=#FFFFFF;" parent="1" vertex="1">
          <mxGeometry x="469.99999999999994" y="490" width="61.62" height="61.62" as="geometry" />
        </mxCell>
        <mxCell id="YNiDKU0idmeV1tOSZLgt-36" value="" style="edgeStyle=segmentEdgeStyle;endArrow=classic;html=1;rounded=0;fontSize=20;strokeWidth=4;entryX=0.329;entryY=0.839;entryDx=0;entryDy=0;entryPerimeter=0;dashed=1;strokeColor=#FF0000;dashPattern=1 1;" parent="1" source="YNiDKU0idmeV1tOSZLgt-34" edge="1">
          <mxGeometry width="50" height="50" relative="1" as="geometry">
            <mxPoint x="550" y="472" as="sourcePoint" />
            <mxPoint x="898.094" y="150.17649999999992" as="targetPoint" />
            <Array as="points">
              <mxPoint x="897" y="472" />
              <mxPoint x="897" y="180" />
            </Array>
          </mxGeometry>
        </mxCell>
        <mxCell id="YNiDKU0idmeV1tOSZLgt-39" value="" style="line;strokeWidth=2;html=1;perimeter=backbonePerimeter;points=[];outlineConnect=0;rounded=0;shadow=0;glass=0;labelBackgroundColor=none;labelBorderColor=none;fontSize=20;fontColor=none;fillColor=#33FF33;strokeColor=#878787;" parent="1" vertex="1">
          <mxGeometry x="519" y="525" width="30" height="3.37" as="geometry" />
        </mxCell>
        <mxCell id="YNiDKU0idmeV1tOSZLgt-41" value="" style="line;strokeWidth=2;direction=south;html=1;rounded=0;shadow=0;glass=0;labelBackgroundColor=none;labelBorderColor=none;fontColor=none;fillColor=#FFFFFF;strokeColor=#858585;" parent="1" vertex="1">
          <mxGeometry x="494" y="489" width="10" height="11" as="geometry" />
        </mxCell>
        <mxCell id="YNiDKU0idmeV1tOSZLgt-42" value="" style="line;strokeWidth=2;direction=north;html=1;rounded=0;shadow=0;glass=0;labelBackgroundColor=none;labelBorderColor=none;fontColor=none;fillColor=#FFFFFF;strokeColor=#858585;" parent="1" vertex="1">
          <mxGeometry x="612.5" y="250" width="10" height="11" as="geometry" />
        </mxCell>
        <mxCell id="YNiDKU0idmeV1tOSZLgt-43" value="" style="line;strokeWidth=2;direction=north;html=1;rounded=0;shadow=0;glass=0;labelBackgroundColor=none;labelBorderColor=none;fontColor=none;fillColor=#FFFFFF;strokeColor=#858585;" parent="1" vertex="1">
          <mxGeometry x="613.5" y="293" width="10" height="11" as="geometry" />
        </mxCell>
        <mxCell id="YNiDKU0idmeV1tOSZLgt-44" value="" style="edgeStyle=segmentEdgeStyle;endArrow=classic;html=1;rounded=0;fontSize=20;strokeWidth=4;entryX=-0.035;entryY=-0.085;entryDx=0;entryDy=0;entryPerimeter=0;strokeColor=#FF0000;dashed=1;dashPattern=1 1;exitX=0.402;exitY=0.93;exitDx=0;exitDy=0;exitPerimeter=0;" parent="1" source="YNiDKU0idmeV1tOSZLgt-12" target="5-vusKYfpJIrkrFz_v---142" edge="1">
          <mxGeometry width="50" height="50" relative="1" as="geometry">
            <mxPoint x="1040" y="470" as="sourcePoint" />
            <mxPoint x="917.474" y="349.9964999999999" as="targetPoint" />
            <Array as="points">
              <mxPoint x="916" y="673" />
            </Array>
          </mxGeometry>
        </mxCell>
        <mxCell id="YNiDKU0idmeV1tOSZLgt-47" value="&lt;font style=&quot;font-size: 16px;&quot;&gt;nodejs&lt;/font&gt;" style="text;html=1;strokeColor=none;fillColor=none;align=left;verticalAlign=middle;whiteSpace=wrap;overflow=hidden;fontSize=20;fontStyle=1;fontFamily=Courier New;rounded=0;" parent="1" vertex="1">
          <mxGeometry x="670" y="410" width="84.54" height="23" as="geometry" />
        </mxCell>
      </root>
    </mxGraphModel>
  </diagram>
</mxfile>
